<svg width="114" height="114" viewBox="0 0 114 114" fill="none" xmlns="http://www.w3.org/2000/svg">
<path d="M96.1875 1.78125H20.0391C16.6153 1.7852 13.3328 3.14705 10.9118 5.56805C8.4908 7.98905 7.12895 11.2715 7.125 14.6953V110.438C7.1249 110.753 7.20853 111.063 7.36732 111.335C7.52612 111.607 7.75441 111.833 8.02885 111.988C8.30329 112.144 8.61404 112.223 8.92937 112.219C9.24469 112.215 9.55328 112.127 9.82359 111.965L44.5312 91.1399L79.2389 111.965C79.5092 112.127 79.8178 112.215 80.1331 112.219C80.4485 112.223 80.7592 112.144 81.0337 111.988C81.3081 111.833 81.5364 111.607 81.6952 111.335C81.854 111.063 81.9376 110.753 81.9375 110.438V58.7812H105.094C105.566 58.7812 106.019 58.5936 106.353 58.2595C106.687 57.9255 106.875 57.4724 106.875 57V12.4688C106.872 9.63517 105.745 6.91851 103.741 4.91487C101.738 2.91122 99.0211 1.78426 96.1875 1.78125ZM78.375 12.4688V107.291L45.4486 87.5351C45.1714 87.369 44.8544 87.2812 44.5312 87.2812C44.2081 87.2812 43.8911 87.369 43.6139 87.5351L10.6875 107.291V14.6953C10.6902 12.216 11.6763 9.83892 13.4295 8.08575C15.1827 6.33258 17.5597 5.34646 20.0391 5.34375H81.1048C79.3455 7.29975 78.3731 9.838 78.375 12.4688ZM103.312 55.2188H81.9375V12.4688C81.94 10.5798 82.6914 8.76901 84.0271 7.43335C85.3628 6.09769 87.1736 5.34622 89.0625 5.34375H96.1875C98.0764 5.34622 99.8872 6.09769 101.223 7.43335C102.559 8.76901 103.31 10.5798 103.312 12.4688V55.2188Z" fill="url(#paint0_linear)"/>
<path d="M73.0312 35.625H69.4688C69.4687 35.2381 69.3426 34.8617 69.1096 34.5527C68.8766 34.2438 68.5494 34.0192 68.1773 33.9128C59.6563 31.4769 52.9811 31.4302 44.5312 33.7747C36.0814 31.4302 29.4062 31.4769 20.8852 33.9128C20.5131 34.0192 20.1859 34.2438 19.9529 34.5527C19.7199 34.8617 19.5938 35.2381 19.5938 35.625H16.0312C15.5588 35.625 15.1058 35.8127 14.7717 36.1467C14.4377 36.4808 14.25 36.9338 14.25 37.4062V76.5938C14.25 77.0662 14.4377 77.5192 14.7717 77.8533C15.1058 78.1873 15.5588 78.375 16.0312 78.375H73.0312C73.5037 78.375 73.9567 78.1873 74.2908 77.8533C74.6248 77.5192 74.8125 77.0662 74.8125 76.5938V37.4062C74.8125 36.9338 74.6248 36.4808 74.2908 36.1467C73.9567 35.8127 73.5037 35.625 73.0312 35.625ZM46.3125 36.9854C53.2594 35.1752 58.9594 35.1752 65.9062 36.9854V68.9344C59.0195 67.2555 53.1993 67.26 46.3125 68.9388V36.9854ZM23.1562 36.9854C30.1031 35.1752 35.8031 35.1752 42.75 36.9854V68.9366C39.5474 68.1217 36.2577 67.6985 32.9531 67.6764C29.6486 67.6977 26.3589 68.1201 23.1562 68.9344V36.9854ZM71.25 74.8125H17.8125V39.1875H19.5938V71.25C19.5934 71.5258 19.6573 71.798 19.7802 72.0449C19.9031 72.2919 20.0817 72.5069 20.302 72.6729C20.5222 72.839 20.7781 72.9515 21.0493 73.0018C21.3205 73.052 21.5997 73.0384 21.8648 72.9622C29.8448 70.6822 36.0614 70.6822 44.0414 72.9622C44.3616 73.0535 44.7009 73.0535 45.0211 72.9622C53.0011 70.6822 59.2177 70.6822 67.1977 72.9622C67.3568 73.0084 67.5218 73.0316 67.6875 73.0312C67.9215 73.0315 68.1533 72.9857 68.3695 72.8963C68.5857 72.8068 68.7822 72.6756 68.9477 72.5102C69.1132 72.3447 69.2443 72.1482 69.3338 71.932C69.4232 71.7158 69.469 71.484 69.4688 71.25V39.1875H71.25V74.8125Z" fill="url(#paint1_linear)"/>
<defs>
<linearGradient id="paint0_linear" x1="-2623.18" y1="53273.7" x2="57751.8" y2="-1258.31" gradientUnits="userSpaceOnUse">
<stop stop-color="#292E8A" stop-opacity="0.9"/>
</linearGradient>
<linearGradient id="paint1_linear" x1="-1582.72" y1="22377.6" x2="22986" y2="-9742.33" gradientUnits="userSpaceOnUse">
<stop stop-color="#292E8A" stop-opacity="0.9"/>
</linearGradient>
</defs>
</svg>
