<svg width="114" height="114" viewBox="0 0 114 114" fill="none" xmlns="http://www.w3.org/2000/svg">
<path d="M105.984 14.25H78.3616C75.8757 10.9319 72.6509 8.23855 68.943 6.38344C65.2351 4.52834 61.1461 3.5625 57 3.5625C52.8539 3.5625 48.7649 4.52834 45.057 6.38344C41.3491 8.23855 38.1243 10.9319 35.6384 14.25H8.01562C6.36273 14.2518 4.77805 14.9093 3.60927 16.078C2.4405 17.2468 1.78308 18.8315 1.78125 20.4844V89.9531C1.78308 91.606 2.4405 93.1907 3.60927 94.3595C4.77805 95.5283 6.36273 96.1857 8.01562 96.1875H43.6807L41.5432 101.531H33.8438C33.3713 101.531 32.9183 101.719 32.5842 102.053C32.2502 102.387 32.0625 102.84 32.0625 103.313V108.656C32.0625 109.129 32.2502 109.582 32.5842 109.916C32.9183 110.25 33.3713 110.438 33.8438 110.438H80.1562C80.6287 110.438 81.0817 110.25 81.4158 109.916C81.7498 109.582 81.9375 109.129 81.9375 108.656V103.313C81.9375 102.84 81.7498 102.387 81.4158 102.053C81.0817 101.719 80.6287 101.531 80.1562 101.531H72.4568L70.3193 96.1875H105.984C107.637 96.1857 109.222 95.5283 110.391 94.3595C111.56 93.1907 112.217 91.606 112.219 89.9531V20.4844C112.217 18.8315 111.56 17.2468 110.391 16.078C109.222 14.9093 107.637 14.2518 105.984 14.25ZM57 7.12501C62.2578 7.12548 67.3588 8.91507 71.4645 12.1995C75.5702 15.4839 78.436 20.0677 79.5907 25.1971C80.7455 30.3265 80.1204 35.6961 77.8183 40.4231C75.5162 45.1501 71.6741 48.953 66.9238 51.2065C66.6194 51.3513 66.3623 51.5793 66.1822 51.8642C66.0021 52.1491 65.9064 52.4792 65.9062 52.8163V58.7813H64.125V23.1563C64.125 22.6838 63.9373 22.2308 63.6033 21.8967C63.2692 21.5627 62.8162 21.375 62.3438 21.375C61.8713 21.375 61.4183 21.5627 61.0842 21.8967C60.7502 22.2308 60.5625 22.6838 60.5625 23.1563V58.7813H53.4375V23.1563C53.4375 22.6838 53.2498 22.2308 52.9158 21.8967C52.5817 21.5627 52.1287 21.375 51.6562 21.375C51.1838 21.375 50.7308 21.5627 50.3967 21.8967C50.0627 22.2308 49.875 22.6838 49.875 23.1563V58.7813H48.0938V52.8163C48.0936 52.4792 47.9979 52.1491 47.8178 51.8642C47.6377 51.5793 47.3806 51.3513 47.0762 51.2065C42.3259 48.953 38.4838 45.1501 36.1817 40.4231C33.8796 35.6961 33.2545 30.3265 34.4093 25.1971C35.564 20.0677 38.4298 15.4839 42.5355 12.1995C46.6412 8.91507 51.7422 7.12548 57 7.12501ZM48.9844 73.0313C48.2759 73.0307 47.5967 72.749 47.0957 72.248C46.5948 71.7471 46.3131 71.0678 46.3125 70.3594V67.6875H67.6875V70.3594C67.6869 71.0678 67.4052 71.7471 66.9043 72.248C66.4033 72.749 65.7241 73.0307 65.0156 73.0313H48.9844ZM60.5625 76.5938V78.375H53.4375V76.5938H60.5625ZM44.5312 64.125V62.3438H69.4688V64.125H44.5312ZM78.375 105.094V106.875H35.625V105.094H78.375ZM45.3818 101.531L47.5193 96.1875H66.4807L68.6182 101.531H45.3818ZM108.656 89.9531C108.656 90.6616 108.374 91.3408 107.873 91.8418C107.372 92.3427 106.693 92.6244 105.984 92.625H8.01562C7.30718 92.6244 6.62792 92.3427 6.12698 91.8418C5.62603 91.3408 5.34434 90.6616 5.34375 89.9531V87.2813H108.656V89.9531ZM108.656 83.7188H5.34375V20.4844C5.34434 19.7759 5.62603 19.0967 6.12698 18.5957C6.62792 18.0948 7.30718 17.8131 8.01562 17.8125H33.3762C31.737 20.9153 30.7252 24.3107 30.3987 27.8047C30.0722 31.2987 30.4373 34.8228 31.4733 38.1756C32.5092 41.5284 34.1956 44.6443 36.4361 47.3451C38.6767 50.046 41.4275 52.2788 44.5312 53.9162V58.7813H42.75C42.2776 58.7813 41.8245 58.9689 41.4905 59.303C41.1564 59.637 40.9688 60.0901 40.9688 60.5625V65.9063C40.9688 66.3787 41.1564 66.8317 41.4905 67.1658C41.8245 67.4998 42.2776 67.6875 42.75 67.6875V70.3594C42.7518 72.0123 43.4092 73.597 44.578 74.7657C45.7468 75.9345 47.3315 76.5919 48.9844 76.5938H49.875V80.1563C49.875 80.6287 50.0627 81.0817 50.3967 81.4158C50.7308 81.7498 51.1838 81.9375 51.6562 81.9375H62.3438C62.8162 81.9375 63.2692 81.7498 63.6033 81.4158C63.9373 81.0817 64.125 80.6287 64.125 80.1563V76.5938H65.0156C66.6685 76.5919 68.2532 75.9345 69.422 74.7657C70.5908 73.597 71.2482 72.0123 71.25 70.3594V67.6875C71.7224 67.6875 72.1755 67.4998 72.5095 67.1658C72.8436 66.8317 73.0312 66.3787 73.0312 65.9063V60.5625C73.0312 60.0901 72.8436 59.637 72.5095 59.303C72.1755 58.9689 71.7224 58.7813 71.25 58.7813H69.4688V53.9162C72.573 52.2793 75.3241 50.0466 77.565 47.3458C79.8059 44.6451 81.4925 41.5291 82.5285 38.1762C83.5645 34.8232 83.9295 31.2989 83.6027 27.8048C83.2759 24.3107 82.2636 20.9152 80.6238 17.8125H105.984C106.693 17.8131 107.372 18.0948 107.873 18.5957C108.374 19.0967 108.656 19.7759 108.656 20.4844V83.7188Z" fill="#292E8A"/>
<path d="M57 37.4063C57.4724 37.4063 57.9255 37.2186 58.2595 36.8845C58.5936 36.5505 58.7812 36.0974 58.7812 35.625V28.5C58.7812 28.0276 58.5936 27.5745 58.2595 27.2405C57.9255 26.9064 57.4724 26.7188 57 26.7188C56.5276 26.7188 56.0745 26.9064 55.7405 27.2405C55.4064 27.5745 55.2188 28.0276 55.2188 28.5V35.625C55.2188 36.0974 55.4064 36.5505 55.7405 36.8845C56.0745 37.2186 56.5276 37.4063 57 37.4063Z" fill="#292E8A"/>
</svg>
