<svg width="151" height="150" viewBox="0 0 151 150" fill="none" xmlns="http://www.w3.org/2000/svg">
<g opacity="0.1">
<path d="M147.506 125H145.006V52.5C145.002 49.186 143.684 46.0089 141.341 43.6655C138.997 41.3222 135.82 40.004 132.506 40H105.006V37.5C105.002 34.186 103.684 31.0089 101.341 28.6655C98.9975 26.3222 95.8203 25.004 92.5063 25V17.5C92.5063 12.8587 90.6626 8.40752 87.3807 5.12563C84.0988 1.84374 79.6476 0 75.0063 0C70.3651 0 65.9139 1.84374 62.632 5.12563C59.3501 8.40752 57.5063 12.8587 57.5063 17.5V25C54.1924 25.004 51.0152 26.3222 48.6719 28.6655C46.3286 31.0089 45.0103 34.186 45.0063 37.5V40H17.5063C14.1924 40.004 11.0152 41.3222 8.6719 43.6655C6.32855 46.0089 5.01032 49.186 5.00635 52.5V125H2.50635C1.84331 125 1.20742 125.263 0.738581 125.732C0.26974 126.201 0.00634766 126.837 0.00634766 127.5V137.5C0.0103173 140.814 1.32855 143.991 3.6719 146.334C6.01524 148.678 9.19236 149.996 12.5063 150H137.506C140.82 149.996 143.997 148.678 146.341 146.334C148.684 143.991 150.002 140.814 150.006 137.5V127.5C150.006 126.837 149.743 126.201 149.274 125.732C148.805 125.263 148.169 125 147.506 125ZM57.5063 85H92.5063C95.8203 84.996 98.9975 83.6778 101.341 81.3344C103.684 78.9911 105.002 75.814 105.006 72.5V55H130.006V115H20.0063V55H45.0063V72.5C45.0103 75.814 46.3286 78.9911 48.6719 81.3344C51.0152 83.6778 54.1924 84.996 57.5063 85V85ZM62.5063 17.5C62.5063 14.1848 63.8233 11.0054 66.1675 8.66117C68.5117 6.31696 71.6911 5 75.0063 5C78.3216 5 81.501 6.31696 83.8452 8.66117C86.1894 11.0054 87.5063 14.1848 87.5063 17.5V25H62.5063V17.5ZM50.0063 37.5C50.0063 35.5109 50.7965 33.6032 52.203 32.1967C53.6096 30.7902 55.5172 30 57.5063 30H92.5063C94.4955 30 96.4031 30.7902 97.8096 32.1967C99.2162 33.6032 100.006 35.5109 100.006 37.5V72.5C100.006 74.4891 99.2162 76.3968 97.8096 77.8033C96.4031 79.2098 94.4955 80 92.5063 80H57.5063C55.5172 80 53.6096 79.2098 52.203 77.8033C50.7965 76.3968 50.0063 74.4891 50.0063 72.5V37.5ZM10.0063 52.5C10.0063 50.5109 10.7965 48.6032 12.203 47.1967C13.6096 45.7902 15.5172 45 17.5063 45H45.0063V50H17.5063C16.8433 50 16.2074 50.2634 15.7386 50.7322C15.2697 51.2011 15.0063 51.837 15.0063 52.5V117.5C15.0063 118.163 15.2697 118.799 15.7386 119.268C16.2074 119.737 16.8433 120 17.5063 120H132.506C133.169 120 133.805 119.737 134.274 119.268C134.743 118.799 135.006 118.163 135.006 117.5V52.5C135.006 51.837 134.743 51.2011 134.274 50.7322C133.805 50.2634 133.169 50 132.506 50H105.006V45H132.506C134.495 45 136.403 45.7902 137.81 47.1967C139.216 48.6032 140.006 50.5109 140.006 52.5V125H95.0063C94.3433 125 93.7074 125.263 93.2386 125.732C92.7697 126.201 92.5063 126.837 92.5063 127.5V132.5C92.5063 133.163 92.243 133.799 91.7741 134.268C91.3053 134.737 90.6694 135 90.0063 135H60.0063C59.3433 135 58.7074 134.737 58.2386 134.268C57.7697 133.799 57.5063 133.163 57.5063 132.5V127.5C57.5063 126.837 57.243 126.201 56.7741 125.732C56.3053 125.263 55.6694 125 55.0063 125H10.0063V52.5ZM145.006 137.5C145.006 139.489 144.216 141.397 142.81 142.803C141.403 144.21 139.495 145 137.506 145H12.5063C10.5172 145 8.60957 144.21 7.20305 142.803C5.79652 141.397 5.00635 139.489 5.00635 137.5V130H52.5063V132.5C52.5063 134.489 53.2965 136.397 54.703 137.803C56.1096 139.21 58.0172 140 60.0063 140H90.0063C91.9955 140 93.9031 139.21 95.3096 137.803C96.7162 136.397 97.5063 134.489 97.5063 132.5V130H145.006V137.5Z" fill="#292E8A"/>
<path d="M77.5059 125H72.5059V130H77.5059V125Z" fill="#292E8A"/>
<path d="M87.5059 125H82.5059V130H87.5059V125Z" fill="#292E8A"/>
<path d="M67.5059 125H62.5059V130H67.5059V125Z" fill="#292E8A"/>
<path d="M72.5059 54.6449V74.9999H77.5059V72.4999H82.5059V67.4999H77.5059V64.9999H82.5059V59.9999H77.5059V54.6449C79.8625 54.0364 81.9163 52.5893 83.2824 50.5748C84.6484 48.5604 85.2328 46.1169 84.9262 43.7024C84.6195 41.2878 83.4427 39.068 81.6165 37.4591C79.7902 35.8501 77.4398 34.9624 75.0059 34.9624C72.5719 34.9624 70.2216 35.8501 68.3953 37.4591C66.569 39.068 65.3923 41.2878 65.0856 43.7024C64.7789 46.1169 65.3633 48.5604 66.7294 50.5748C68.0954 52.5893 70.1492 54.0364 72.5059 54.6449ZM75.0059 39.9999C75.9948 39.9999 76.9615 40.2931 77.7837 40.8425C78.606 41.3919 79.2468 42.1728 79.6253 43.0864C80.0037 44.0001 80.1027 45.0054 79.9098 45.9753C79.7169 46.9452 79.2407 47.8361 78.5414 48.5354C77.8421 49.2347 76.9512 49.7109 75.9813 49.9038C75.0114 50.0967 74.0061 49.9977 73.0925 49.6193C72.1788 49.2408 71.3979 48.6 70.8485 47.7777C70.2991 46.9555 70.0059 45.9888 70.0059 44.9999C70.0059 43.6738 70.5327 42.402 71.4703 41.4643C72.408 40.5266 73.6798 39.9999 75.0059 39.9999V39.9999Z" fill="#292E8A"/>
<path d="M113.541 10H135.466C136.056 11.668 137.216 13.0739 138.742 13.9691C140.268 14.8643 142.061 15.1912 143.805 14.892C145.549 14.5928 147.131 13.6868 148.271 12.3342C149.411 10.9815 150.037 9.26923 150.037 7.50001C150.037 5.7308 149.411 4.01854 148.271 2.66587C147.131 1.31319 145.549 0.407204 143.805 0.108026C142.061 -0.191152 140.268 0.135744 138.742 1.03094C137.216 1.92613 136.056 3.33198 135.466 5.00002H111.466L100.738 15.7325L104.273 19.2675L113.541 10ZM142.506 5.00002C143 5.00002 143.484 5.14664 143.895 5.42134C144.306 5.69604 144.626 6.08649 144.815 6.54331C145.005 7.00012 145.054 7.50279 144.958 7.98774C144.861 8.47269 144.623 8.91815 144.274 9.26778C143.924 9.61741 143.478 9.85551 142.994 9.95198C142.509 10.0484 142.006 9.99893 141.549 9.80971C141.092 9.62049 140.702 9.30006 140.427 8.88894C140.152 8.47782 140.006 7.99447 140.006 7.50001C140.006 6.83697 140.269 6.20109 140.738 5.73225C141.207 5.26341 141.843 5.00002 142.506 5.00002V5.00002Z" fill="#292E8A"/>
<path d="M125.466 25H110.006V30H125.466C126.056 31.6681 127.216 33.0739 128.742 33.9691C130.268 34.8643 132.061 35.1912 133.805 34.892C135.549 34.5928 137.131 33.6868 138.271 32.3342C139.411 30.9815 140.037 29.2692 140.037 27.5C140.037 25.7308 139.411 24.0185 138.271 22.6659C137.131 21.3132 135.549 20.4072 133.805 20.108C132.061 19.8088 130.268 20.1357 128.742 21.0309C127.216 21.9261 126.056 23.332 125.466 25V25ZM135.006 27.5C135.006 27.9945 134.859 28.4778 134.585 28.8889C134.31 29.3001 133.919 29.6205 133.463 29.8097C133.006 29.9989 132.503 30.0484 132.018 29.952C131.533 29.8555 131.088 29.6174 130.738 29.2678C130.388 28.9182 130.15 28.4727 130.054 27.9877C129.957 27.5028 130.007 27.0001 130.196 26.5433C130.385 26.0865 130.706 25.696 131.117 25.4213C131.528 25.1466 132.011 25 132.506 25C133.169 25 133.805 25.2634 134.274 25.7323C134.742 26.2011 135.006 26.837 135.006 27.5Z" fill="#292E8A"/>
<path d="M7.50586 15.0013C9.05151 14.9949 10.5574 14.5111 11.8176 13.6161C13.0778 12.7211 14.0307 11.4586 14.5459 10.0013H36.4709L45.7384 19.2688L49.2734 15.7338L38.5409 5.00135H14.5409C14.0802 3.70821 13.273 2.5666 12.2073 1.70129C11.1417 0.835981 9.85863 0.280282 8.49847 0.0949355C7.13832 -0.0904112 5.75338 0.101728 4.49505 0.650351C3.23672 1.19897 2.15343 2.08297 1.36359 3.2057C0.573748 4.32843 0.107755 5.64669 0.0165479 7.01639C-0.0746592 8.38608 0.21243 9.75449 0.846435 10.972C1.48044 12.1896 2.43696 13.2094 3.61143 13.92C4.78591 14.6306 6.13314 15.0047 7.50586 15.0013V15.0013ZM7.50586 5.00135C8.00032 5.00135 8.48367 5.14797 8.89479 5.42267C9.30591 5.69738 9.62634 6.08783 9.81556 6.54464C10.0048 7.00146 10.0543 7.50412 9.95783 7.98907C9.86136 8.47403 9.62326 8.91948 9.27363 9.26912C8.924 9.61875 8.47854 9.85685 7.99359 9.95331C7.50864 10.0498 7.00597 10.0003 6.54915 9.81105C6.09234 9.62183 5.70189 9.3014 5.42719 8.89027C5.15249 8.47915 5.00586 7.9958 5.00586 7.50135C5.00586 6.83831 5.26926 6.20242 5.7381 5.73358C6.20694 5.26474 6.84282 5.00135 7.50586 5.00135V5.00135Z" fill="#292E8A"/>
<path d="M17.5057 20.0001C16.1294 19.9944 14.778 20.3675 13.5997 21.0786C12.4213 21.7897 11.4613 22.8113 10.8248 24.0316C10.1883 25.2519 9.89989 26.6238 9.9911 27.997C10.0823 29.3703 10.5496 30.692 11.3419 31.8174C12.1342 32.9428 13.2209 33.8285 14.4829 34.3775C15.745 34.9265 17.1338 35.1176 18.4973 34.9299C19.8607 34.7423 21.1462 34.1831 22.2131 33.3135C23.2799 32.444 24.0869 31.2977 24.5457 30.0001H40.0057V25.0001H24.5457C24.0304 23.5428 23.0776 22.2803 21.8174 21.3853C20.5572 20.4903 19.0513 20.0065 17.5057 20.0001V20.0001ZM17.5057 30.0001C17.0112 30.0001 16.5279 29.8534 16.1167 29.5787C15.7056 29.304 15.3852 28.9136 15.196 28.4568C15.0067 28 14.9572 27.4973 15.0537 27.0123C15.1502 26.5274 15.3883 26.0819 15.7379 25.7323C16.0875 25.3827 16.533 25.1446 17.0179 25.0481C17.5029 24.9516 18.0056 25.0011 18.4624 25.1904C18.9192 25.3796 19.3096 25.7 19.5843 26.1111C19.859 26.5223 20.0057 27.0056 20.0057 27.5001C20.0057 28.1631 19.7423 28.799 19.2734 29.2678C18.8046 29.7367 18.1687 30.0001 17.5057 30.0001Z" fill="#292E8A"/>
<path d="M115.006 90.4601C113.338 91.0498 111.932 92.2103 111.037 93.7363C110.141 95.2623 109.814 97.0557 110.114 98.7994C110.413 100.543 111.319 102.125 112.672 103.265C114.024 104.406 115.736 105.031 117.506 105.031C119.275 105.031 120.987 104.406 122.34 103.265C123.692 102.125 124.598 100.543 124.898 98.7994C125.197 97.0557 124.87 95.2623 123.975 93.7363C123.08 92.2103 121.674 91.0498 120.006 90.4601V71.1626L111.393 65.4126L108.618 69.5726L115.006 73.8376V90.4601ZM117.506 100C117.011 100 116.528 99.8535 116.117 99.5788C115.706 99.3041 115.385 98.9136 115.196 98.4568C115.007 98 114.957 97.4973 115.054 97.0124C115.15 96.5274 115.388 96.082 115.738 95.7323C116.088 95.3827 116.533 95.1446 117.018 95.0481C117.503 94.9517 118.006 95.0012 118.462 95.1904C118.919 95.3796 119.31 95.7001 119.584 96.1112C119.859 96.5223 120.006 97.0056 120.006 97.5001C120.006 98.1631 119.742 98.799 119.273 99.2679C118.805 99.7367 118.169 100 117.506 100Z" fill="#292E8A"/>
<path d="M40.7959 69.8726L39.2159 65.1226L30.0059 68.1976V90.4476C28.3378 91.0373 26.932 92.1977 26.0368 93.7237C25.1416 95.2498 24.8147 97.0431 25.1139 98.7869C25.4131 100.531 26.3191 102.112 27.6717 103.253C29.0244 104.393 30.7367 105.019 32.5059 105.019C34.2751 105.019 35.9874 104.393 37.34 103.253C38.6927 102.112 39.5987 100.531 39.8979 98.7869C40.197 97.0431 39.8702 95.2498 38.975 93.7237C38.0798 92.1977 36.6739 91.0373 35.0059 90.4476V71.8026L40.7959 69.8726ZM32.5059 100C32.0114 100 31.5281 99.8534 31.117 99.5787C30.7058 99.304 30.3854 98.9136 30.1962 98.4568C30.007 97.9999 29.9574 97.4973 30.0539 97.0123C30.1504 96.5274 30.3885 96.0819 30.7381 95.7323C31.0877 95.3827 31.5332 95.1446 32.0182 95.0481C32.5031 94.9516 33.0058 95.0011 33.4626 95.1904C33.9194 95.3796 34.3098 95.7 34.5846 96.1111C34.8593 96.5223 35.0059 97.0056 35.0059 97.5C35.0059 98.1631 34.7425 98.799 34.2736 99.2678C33.8048 99.7367 33.1689 100 32.5059 100Z" fill="#292E8A"/>
<path d="M62.506 110C64.273 110.003 65.9843 109.381 67.3366 108.244C68.6889 107.106 69.595 105.527 69.8944 103.785C70.1939 102.044 69.8673 100.253 68.9726 98.7288C68.0778 97.205 66.6727 96.047 65.006 95.46V90H60.006V95.46C58.3393 96.047 56.9341 97.205 56.0394 98.7288C55.1446 100.253 54.8181 102.044 55.1175 103.785C55.4169 105.527 56.3231 107.106 57.6754 108.244C59.0277 109.381 60.7389 110.003 62.506 110V110ZM62.506 100C63.0004 100 63.4838 100.147 63.8949 100.421C64.306 100.696 64.6265 101.086 64.8157 101.543C65.0049 102 65.0544 102.503 64.9579 102.988C64.8615 103.473 64.6234 103.918 64.2737 104.268C63.9241 104.617 63.4787 104.855 62.9937 104.952C62.5088 105.048 62.0061 104.999 61.5493 104.81C61.0925 104.62 60.702 104.3 60.4273 103.889C60.1526 103.478 60.006 102.994 60.006 102.5C60.006 101.837 60.2694 101.201 60.7382 100.732C61.207 100.263 61.8429 100 62.506 100Z" fill="#292E8A"/>
<path d="M87.506 110C89.273 110.003 90.9843 109.381 92.3366 108.244C93.6889 107.106 94.595 105.527 94.8944 103.785C95.1939 102.044 94.8673 100.253 93.9726 98.7288C93.0778 97.205 91.6727 96.047 90.006 95.46V90H85.006V95.46C83.3393 96.047 81.9341 97.205 81.0394 98.7288C80.1446 100.253 79.8181 102.044 80.1175 103.785C80.4169 105.527 81.3231 107.106 82.6754 108.244C84.0277 109.381 85.7389 110.003 87.506 110ZM87.506 100C88.0004 100 88.4838 100.147 88.8949 100.421C89.306 100.696 89.6264 101.086 89.8157 101.543C90.0049 102 90.0544 102.503 89.9579 102.988C89.8615 103.473 89.6234 103.918 89.2737 104.268C88.9241 104.617 88.4786 104.855 87.9937 104.952C87.5087 105.048 87.0061 104.999 86.5493 104.81C86.0924 104.62 85.702 104.3 85.4273 103.889C85.1526 103.478 85.006 102.994 85.006 102.5C85.006 101.837 85.2694 101.201 85.7382 100.732C86.207 100.263 86.8429 100 87.506 100Z" fill="#292E8A"/>
</g>
</svg>
