<svg width="114" height="114" viewBox="0 0 114 114" fill="none" xmlns="http://www.w3.org/2000/svg">
<path d="M110.949 19.6695L57.5119 3.63825C57.1779 3.53806 56.8218 3.53806 56.4877 3.63825L3.05019 19.6695C2.68373 19.7799 2.36257 20.0054 2.13428 20.3126C1.90599 20.6198 1.78271 20.9923 1.78271 21.3751C1.78271 21.7578 1.90599 22.1303 2.13428 22.4375C2.36257 22.7447 2.68373 22.9702 3.05019 23.0806L32.0846 31.7909C32.0703 31.8808 32.0629 31.9716 32.0623 32.0626V41.0222C27.5948 44.6893 23.9986 49.3038 21.534 54.5318C19.0694 59.7597 17.7982 65.4703 17.8123 71.2501C17.8123 92.8588 35.391 110.438 56.9998 110.438C78.6086 110.438 96.1873 92.8588 96.1873 71.2501C96.2014 65.4703 94.9302 59.7597 92.4656 54.5318C90.001 49.3038 86.4048 44.6893 81.9373 41.0222V32.0626C81.9367 31.9716 81.9293 31.8808 81.915 31.7909L97.9686 26.9749V34.1511C96.7801 34.5713 95.7784 35.3981 95.1406 36.4854C94.5028 37.5727 94.2698 38.8504 94.483 40.0928C94.6962 41.3353 95.3417 42.4623 96.3055 43.2748C97.2692 44.0873 98.4892 44.533 99.7498 44.533C101.01 44.533 102.23 44.0873 103.194 43.2748C104.158 42.4623 104.803 41.3353 105.017 40.0928C105.23 38.8504 104.997 37.5727 104.359 36.4854C103.721 35.3981 102.72 34.5713 101.531 34.1511V25.9061L110.949 23.0806C111.316 22.9702 111.637 22.7447 111.865 22.4375C112.094 22.1303 112.217 21.7578 112.217 21.3751C112.217 20.9923 112.094 20.6198 111.865 20.3126C111.637 20.0054 111.316 19.7799 110.949 19.6695ZM33.4784 44.4935C33.5985 44.5185 33.7209 44.5312 33.8436 44.5313H42.565C39.4634 51.2845 37.6354 60.1261 37.4283 69.4688H21.4216C21.6472 64.7087 22.8314 60.0432 24.9031 55.7516C26.9748 51.4601 29.8915 47.6309 33.4784 44.4935ZM21.4193 73.0313H37.4261C37.7289 87.2034 41.6276 99.1979 47.39 105.557C32.9485 101.507 22.1875 88.5616 21.4193 73.0313ZM55.2186 106.643C47.5926 104.669 41.3938 90.2315 40.9886 73.0313H55.2186V106.643ZM55.2186 69.4688H40.9908C41.209 59.9057 43.1929 50.9661 46.5283 44.5313H55.2186V69.4688ZM35.6248 40.9688V32.853L56.4877 39.1119C56.8216 39.2128 57.178 39.2128 57.5119 39.1119L78.3748 32.853V40.9688H35.6248ZM73.0088 69.4688H58.7811V44.5313H67.4713C70.8067 50.9661 72.7906 59.9057 73.0088 69.4688ZM58.7811 106.643V73.0313H73.011C72.6058 90.2315 66.407 104.669 58.7811 106.643ZM66.6096 105.557C72.372 99.1979 76.2707 87.2034 76.5735 73.0313H92.5803C91.8121 88.5616 81.0511 101.507 66.6096 105.557ZM92.578 69.4688H76.5713C76.3642 60.1261 74.5362 51.2845 71.4346 44.5313H80.1561C80.2787 44.5312 80.4011 44.5185 80.5212 44.4935C84.1081 47.6309 87.0248 51.4601 89.0965 55.7516C91.1682 60.0432 92.3524 64.7087 92.578 69.4688ZM99.7498 40.9688C99.3975 40.9688 99.0531 40.8643 98.7602 40.6686C98.4673 40.4729 98.239 40.1947 98.1041 39.8692C97.9693 39.5437 97.934 39.1856 98.0028 38.84C98.0715 38.4945 98.2411 38.1771 98.4903 37.928C98.7394 37.6789 99.0568 37.5093 99.4023 37.4405C99.7478 37.3718 100.106 37.4071 100.431 37.5419C100.757 37.6767 101.035 37.905 101.231 38.1979C101.427 38.4909 101.531 38.8353 101.531 39.1876C101.53 39.6598 101.343 40.1125 101.009 40.4464C100.675 40.7803 100.222 40.9682 99.7498 40.9688ZM56.9998 35.5471L9.76105 21.3751L56.9998 7.20298L104.239 21.3751L56.9998 35.5471Z" fill="#292E8A"/>
</svg>
