<svg width="150" height="150" viewBox="0 0 150 150" fill="none" xmlns="http://www.w3.org/2000/svg">
<path opacity="0.1" d="M141.25 132.5C139.263 132.5 137.451 133.191 135.98 134.311L107.064 104.958C113.571 97.5537 117.647 87.9994 118.099 77.4994H130.126C130.739 81.7294 134.354 84.9996 138.75 84.9996C143.575 84.9996 147.5 81.0742 147.5 76.2491C147.5 71.4254 143.575 67.4987 138.75 67.4987C135.273 67.4987 132.288 69.5543 130.878 72.4998H118.042C117.338 62.2315 113.158 52.9289 106.656 45.7292L135.714 15.4681C137.228 16.7184 139.14 17.4994 141.25 17.4994C146.074 17.4994 150.001 13.5741 150.001 8.75044C150.001 3.92532 146.074 0 141.25 0C136.425 0 132.5 3.92532 132.5 8.75044C132.5 9.60302 132.661 10.4113 132.89 11.1909L103.106 42.2072C96.149 36.0432 87.2855 32.0063 77.4994 31.1494V16.6225C80.4462 15.2121 82.5005 12.228 82.5005 8.75044C82.5005 3.92532 78.5737 0 73.75 0C68.9263 0 64.9996 3.92532 64.9996 8.75044C64.9996 13.1464 68.2712 16.7613 72.4998 17.3736V31.0049C61.9011 31.2595 52.2151 35.2092 44.6777 41.6379L16.3908 12.9261C17.076 11.6787 17.4994 10.2696 17.4994 8.75044C17.4994 3.92532 13.5741 0 8.75044 0C3.92532 0 0 3.92532 0 8.75044C0 13.5741 3.92532 17.4994 8.75044 17.4994C10.2324 17.4994 11.61 17.0946 12.8345 16.4394L41.0714 45.1012C34.2436 52.3825 29.8405 61.9326 29.1152 72.4998H16.6225C15.2121 69.5543 12.228 67.5001 8.75044 67.5001C3.92532 67.5001 0 71.4254 0 76.2506C0 81.0742 3.92532 84.9996 8.75044 84.9996C13.1464 84.9996 16.7613 81.7294 17.3736 77.4994H29.058C29.5415 88.6989 34.142 98.8326 41.4205 106.417C41.4162 106.429 41.4162 106.44 41.4133 106.452L14.3781 134.607C12.8517 133.312 10.9034 132.5 8.75044 132.5C3.92532 132.5 0 136.425 0 141.25C0 146.074 3.92532 150.001 8.75044 150.001C13.5741 150.001 17.4994 146.074 17.4994 141.25C17.4994 140.445 17.355 139.679 17.1504 138.938L45.074 109.858C52.5513 116.085 62.0914 119.883 72.5012 120.132V132.626C68.2712 133.239 65.001 136.854 65.001 141.25C65.001 146.074 68.9263 150.001 73.75 150.001C78.5751 150.001 82.5005 146.074 82.5005 141.25C82.5005 137.773 80.4462 134.787 77.5008 133.378V119.987C87.4987 119.112 96.5338 114.914 103.555 108.52L133.012 138.419C132.703 139.312 132.5 140.255 132.5 141.25C132.5 146.074 136.425 150.001 141.25 150.001C146.074 150.001 150.001 146.074 150.001 141.25C150.001 136.425 146.074 132.5 141.25 132.5V132.5ZM77.4994 97.415C80.595 97.7211 83.6105 98.4163 86.5159 99.4206C84.1627 106.579 80.8868 111.574 77.4994 113.598V97.415ZM77.4994 92.3967V77.4994H89.9563C89.8261 83.8323 89.0822 89.6115 87.8878 94.6112C84.5404 93.4768 81.0657 92.7086 77.4994 92.3967ZM77.4994 72.4998V58.7397C81.0671 58.4278 84.5418 57.6611 87.8878 56.5281C89.0093 61.2259 89.7374 66.6132 89.9305 72.4998H77.4994ZM77.4994 53.7243V37.5381C80.8868 39.5622 84.1641 44.5576 86.5173 51.7173C83.612 52.7201 80.5965 53.4182 77.4994 53.7243ZM84.8737 37.6124C89.9706 39.1316 94.6441 41.6365 98.6581 44.9281C96.3264 46.8407 93.8201 48.4829 91.1565 49.8033C89.4942 44.8523 87.3585 40.7066 84.8737 37.6124ZM72.4998 36.7985V53.8716C68.8062 53.7729 65.1956 53.1879 61.748 52.1135C64.4746 43.6006 68.5043 38.0487 72.4998 36.7985ZM57.0688 50.2896C54.0118 48.8863 51.1193 47.1139 48.4786 44.9438C52.8989 41.3146 58.1303 38.6624 63.838 37.2119C61.1329 40.442 58.8226 44.9081 57.0688 50.2896ZM72.4998 58.8713V72.4998H58.465C58.6538 66.7806 59.3505 61.5449 60.4177 56.9429C64.2943 58.1346 68.3527 58.7726 72.4998 58.8713ZM72.4998 77.4994V92.2651C68.3498 92.3638 64.2886 92.9947 60.4162 94.1849C59.279 89.2825 58.5666 83.6577 58.4393 77.4994H72.4998ZM72.4998 97.2662V114.339C68.5029 113.088 64.4717 107.533 61.7452 99.0157C65.1913 97.9414 68.8033 97.3649 72.4998 97.2662ZM63.838 113.926C58.1245 112.474 52.8889 109.819 48.4657 106.184C51.1079 104.011 54.009 102.249 57.0674 100.842C58.8212 106.227 61.1329 110.694 63.838 113.926ZM91.1579 101.329C93.8215 102.649 96.3249 104.3 98.6552 106.211C94.6412 109.501 89.9677 112.006 84.8723 113.524C87.3585 110.43 89.4957 106.281 91.1579 101.329V101.329ZM102.314 102.762C99.3261 100.239 96.0617 98.1345 92.5813 96.4923C93.9932 90.8303 94.8215 84.3873 94.9559 77.4994H113.101C112.626 87.2641 108.624 96.0989 102.314 102.762ZM138.75 72.4998C140.818 72.4998 142.5 74.182 142.5 76.2506C142.5 78.3176 140.818 79.9999 138.75 79.9999C136.683 79.9999 135 78.3176 135 76.2506C135 74.182 136.683 72.4998 138.75 72.4998V72.4998ZM94.9287 72.4998C94.7285 66.0396 93.9145 59.9928 92.5798 54.6413C96.0617 53.0005 99.3261 50.899 102.314 48.3756C108.378 54.78 112.322 63.1857 113.042 72.4998H94.9287ZM141.25 4.99964C143.319 4.99964 145 6.68192 145 8.75044C145 10.8175 143.319 12.4998 141.25 12.4998C139.182 12.4998 137.499 10.8175 137.499 8.75044C137.499 6.68192 139.182 4.99964 141.25 4.99964V4.99964ZM70.0007 8.75044C70.0007 6.68192 71.6815 4.99964 73.75 4.99964C75.8185 4.99964 77.4994 6.68192 77.4994 8.75044C77.4994 10.8175 75.8185 12.4998 73.75 12.4998C71.6815 12.4998 70.0007 10.8175 70.0007 8.75044ZM4.99964 8.75044C4.99964 6.68192 6.68192 4.99964 8.75044 4.99964C10.8175 4.99964 12.4998 6.68192 12.4998 8.75044C12.4998 10.8175 10.8175 12.4998 8.75044 12.4998C6.68192 12.4998 4.99964 10.8175 4.99964 8.75044V8.75044ZM44.8337 48.3856C48.1439 51.1851 51.7974 53.4568 55.6984 55.1648C54.4367 60.3876 53.6614 66.2441 53.4668 72.4998H34.1163C34.8344 63.19 38.7754 54.7886 44.8337 48.3856ZM8.75044 79.9999C6.68192 79.9999 4.99964 78.3176 4.99964 76.2506C4.99964 74.182 6.68192 72.4998 8.75044 72.4998C10.8175 72.4998 12.4998 74.182 12.4998 76.2506C12.4998 78.3176 10.8175 79.9999 8.75044 79.9999ZM53.4411 77.4994C53.5712 84.1785 54.3609 90.4284 55.697 95.9644C51.7945 97.6725 48.1381 99.9413 44.8265 102.744C38.5265 96.0832 34.5311 87.2555 34.0576 77.4994H53.4411ZM8.75044 145C6.68192 145 4.99964 143.319 4.99964 141.25C4.99964 139.182 6.68192 137.499 8.75044 137.499C10.1137 137.499 11.2996 138.24 11.9548 139.332C11.9562 139.333 11.9562 139.335 11.9562 139.336C12.2938 139.898 12.4998 140.548 12.4998 141.25C12.4998 143.319 10.8175 145 8.75044 145V145ZM73.75 145C71.6815 145 70.0007 143.319 70.0007 141.25C70.0007 139.182 71.6815 137.499 73.75 137.499C75.8185 137.499 77.4994 139.182 77.4994 141.25C77.4994 143.319 75.8185 145 73.75 145V145ZM141.25 145C139.182 145 137.499 143.319 137.499 141.25C137.499 139.182 139.182 137.499 141.25 137.499C143.319 137.499 145 139.182 145 141.25C145 143.319 143.319 145 141.25 145V145Z" fill="#292E8A"/>
</svg>
