<svg width="155" height="150" viewBox="0 0 155 150" fill="none" xmlns="http://www.w3.org/2000/svg">
<g opacity="0.1">
<path d="M146.25 15H91.2C87.4576 10.3196 82.7101 6.54125 77.3093 3.94469C71.9084 1.34813 65.9926 -5.85971e-05 60 1.91018e-09C59.337 1.91017e-09 58.7011 0.263392 58.2322 0.732233C57.7634 1.20107 57.5 1.83696 57.5 2.5V15H52.5V12.5C52.5 11.837 52.2366 11.2011 51.7678 10.7322C51.2989 10.2634 50.663 10 50 10C43.188 9.99275 36.4883 11.736 30.5437 15.0625C30.3655 15.021 30.183 15 30 15H8.75C6.43014 15.0026 4.20604 15.9253 2.56565 17.5656C0.92526 19.206 0.00256416 21.4301 0 23.75V121.25C0.00256416 123.57 0.92526 125.794 2.56565 127.434C4.20604 129.075 6.43014 129.997 8.75 130H58.8062L55.8063 137.5H45C44.337 137.5 43.7011 137.763 43.2322 138.232C42.7634 138.701 42.5 139.337 42.5 140V147.5C42.5 148.163 42.7634 148.799 43.2322 149.268C43.7011 149.737 44.337 150 45 150H110C110.663 150 111.299 149.737 111.768 149.268C112.237 148.799 112.5 148.163 112.5 147.5V140C112.5 139.337 112.237 138.701 111.768 138.232C111.299 137.763 110.663 137.5 110 137.5H99.1938L96.1938 130H146.25C148.57 129.997 150.794 129.075 152.434 127.434C154.075 125.794 154.997 123.57 155 121.25V23.75C154.997 21.4301 154.075 19.206 152.434 17.5656C150.794 15.9253 148.57 15.0026 146.25 15ZM62.5 5.0875C70.8933 5.70076 78.7859 9.31255 84.7367 15.2633C90.6874 21.2141 94.2992 29.1067 94.9125 37.5H62.5V5.0875ZM51.0344 52.5H84.9125C84.448 58.9802 82.1892 65.2033 78.3887 70.4727C74.5883 75.742 69.3963 79.8496 63.394 82.3358C57.3916 84.8219 50.8158 85.5884 44.4025 84.5494C37.9893 83.5105 31.9917 80.7071 27.0813 76.4531L51.0344 52.5ZM47.5 15.0875V48.9656L23.5469 72.9187C19.2929 68.0083 16.4895 62.0107 15.4506 55.5975C14.4116 49.1842 15.1781 42.6084 17.6642 36.606C20.1504 30.6037 24.258 25.4117 29.5273 21.6112C34.7967 17.8108 41.0198 15.552 47.5 15.0875V15.0875ZM107.5 142.5V145H47.5V142.5H107.5ZM61.1938 137.5L64.1937 130H90.8062L93.8062 137.5H61.1938ZM150 121.25C149.999 122.244 149.604 123.198 148.901 123.901C148.198 124.604 147.244 124.999 146.25 125H8.75C7.75569 124.999 6.80235 124.604 6.09926 123.901C5.39618 123.198 5.00083 122.244 5 121.25V117.5H150V121.25ZM150 112.5H5V23.75C5.00083 22.7557 5.39618 21.8023 6.09926 21.0993C6.80235 20.3962 7.75569 20.0008 8.75 20H23.575C18.5595 24.4181 14.7313 30.0228 12.4404 36.3019C10.1496 42.581 9.46902 49.3341 10.461 55.944C11.4531 62.5539 14.086 68.8097 18.1192 74.1397C22.1523 79.4696 27.4571 83.7037 33.5486 86.4548C39.6401 89.206 46.324 90.3864 52.9893 89.8883C59.6546 89.3902 66.0888 87.2294 71.7037 83.6035C77.3187 79.9775 81.9352 75.002 85.1314 69.1318C88.3276 63.2616 90.0014 56.6839 90 50C90 49.337 89.7366 48.7011 89.2678 48.2322C88.7989 47.7634 88.163 47.5 87.5 47.5H52.5V20H57.5V40C57.5 40.663 57.7634 41.2989 58.2322 41.7678C58.7011 42.2366 59.337 42.5 60 42.5H97.5C98.163 42.5 98.7989 42.2366 99.2678 41.7678C99.7366 41.2989 100 40.663 100 40C100.008 32.9762 98.156 26.0754 94.6313 20H146.25C147.244 20.0008 148.198 20.3962 148.901 21.0993C149.604 21.8023 149.999 22.7557 150 23.75V112.5Z" fill="#292E8A"/>
<path d="M142.5 80C142.5 80.663 142.237 81.2989 141.768 81.7678C141.299 82.2366 140.663 82.5 140 82.5H107.5C106.837 82.5 106.201 82.2366 105.732 81.7678C105.263 81.2989 105 80.663 105 80V50C105 49.337 105.263 48.7011 105.732 48.2322C106.201 47.7634 106.837 47.5 107.5 47.5C108.163 47.5 108.799 47.7634 109.268 48.2322C109.737 48.7011 110 49.337 110 50V77.5H140C140.663 77.5 141.299 77.7634 141.768 78.2322C142.237 78.7011 142.5 79.337 142.5 80Z" fill="#292E8A"/>
<path d="M113.438 74.4523C113.694 74.6575 113.988 74.8103 114.304 74.9018C114.619 74.9933 114.949 75.0218 115.276 74.9856C115.602 74.9494 115.918 74.8492 116.206 74.6909C116.494 74.5325 116.747 74.319 116.952 74.0626L122.5 67.127V70.0001C122.5 70.5109 122.657 71.0095 122.948 71.4287C123.24 71.848 123.654 72.1677 124.133 72.345C124.612 72.5222 125.134 72.5485 125.628 72.4201C126.123 72.2918 126.566 72.0151 126.898 71.6273L141.898 54.1273C142.112 53.878 142.275 53.5891 142.377 53.2771C142.479 52.965 142.518 52.6359 142.493 52.3085C142.468 51.9812 142.378 51.662 142.23 51.3692C142.081 51.0764 141.877 50.8157 141.627 50.602C141.378 50.3883 141.089 50.2258 140.777 50.1238C140.465 50.0218 140.136 49.9822 139.809 50.0074C139.481 50.0325 139.162 50.1219 138.869 50.2704C138.576 50.4189 138.316 50.6237 138.102 50.8729L127.5 63.242V60.0001C127.5 59.482 127.34 58.9767 127.04 58.5539C126.74 58.1312 126.317 57.812 125.828 57.6404C125.339 57.4688 124.809 57.4534 124.311 57.5962C123.813 57.739 123.372 58.033 123.048 58.4376L113.048 70.9376C112.843 71.1939 112.69 71.4882 112.599 71.8036C112.507 72.119 112.479 72.4493 112.515 72.7757C112.551 73.1021 112.651 73.4181 112.809 73.7058C112.968 73.9935 113.181 74.2471 113.438 74.4523V74.4523Z" fill="#292E8A"/>
<path d="M107.5 90H140C140.663 90 141.299 89.7366 141.768 89.2678C142.237 88.7989 142.5 88.163 142.5 87.5C142.5 86.837 142.237 86.2011 141.768 85.7322C141.299 85.2634 140.663 85 140 85H107.5C106.837 85 106.201 85.2634 105.732 85.7322C105.263 86.2011 105 86.837 105 87.5C105 88.163 105.263 88.7989 105.732 89.2678C106.201 89.7366 106.837 90 107.5 90Z" fill="#292E8A"/>
<path d="M107.5 97.5H140C140.663 97.5 141.299 97.2366 141.768 96.7678C142.237 96.2989 142.5 95.663 142.5 95C142.5 94.337 142.237 93.7011 141.768 93.2322C141.299 92.7634 140.663 92.5 140 92.5H107.5C106.837 92.5 106.201 92.7634 105.732 93.2322C105.263 93.7011 105 94.337 105 95C105 95.663 105.263 96.2989 105.732 96.7678C106.201 97.2366 106.837 97.5 107.5 97.5Z" fill="#292E8A"/>
<path d="M107.5 105H140C140.663 105 141.299 104.737 141.768 104.268C142.237 103.799 142.5 103.163 142.5 102.5C142.5 101.837 142.237 101.201 141.768 100.732C141.299 100.263 140.663 100 140 100H107.5C106.837 100 106.201 100.263 105.732 100.732C105.263 101.201 105 101.837 105 102.5C105 103.163 105.263 103.799 105.732 104.268C106.201 104.737 106.837 105 107.5 105Z" fill="#292E8A"/>
</g>
</svg>
