<svg width="155" height="155" viewBox="0 0 155 155" fill="none" xmlns="http://www.w3.org/2000/svg">
<g opacity="0.1">
<path d="M132.5 55H147.5C151.635 55 155 51.635 155 47.5V7.5C155 3.365 151.635 0 147.5 0H82.5C78.365 0 75 3.365 75 7.5V27.5H68.1975L66.025 34.015C62.1225 35.0425 58.3825 36.595 54.875 38.645L50 36.205V0H0V55H38.5775C36.565 58.4725 35.0325 62.17 34.0175 66.025L27.5 68.1975V85H7.5C3.365 85 0 88.365 0 92.5V132.5C0 136.635 3.365 140 7.5 140H22.5V140.43C22.5 143.99 21.2175 147.348 18.8975 150H12.5V155H67.5V150H61.1025C58.7825 147.345 57.5 143.99 57.5 140.43V140H72.5C76.635 140 80 136.635 80 132.5V127.5H86.8025L88.975 120.985C92.8775 119.958 96.6175 118.405 100.125 116.355L105 118.795V155H155V100H116.423C118.435 96.5275 119.968 92.83 120.983 88.975L127.5 86.8025V70H142.5V65H136.103C133.783 62.345 132.5 58.99 132.5 55.43V55ZM147.5 50H82.5C81.1225 50 80 48.88 80 47.5V40H150V47.5C150 48.88 148.877 50 147.5 50ZM93.8975 65H87.5V70H106.538C107.168 72.4375 107.5 74.95 107.5 77.5C107.5 93.2 95.3725 106.095 80 107.373V92.5C80 88.365 76.635 85 72.5 85H48.4625C47.8325 82.56 47.5 80.0475 47.5 77.5C47.5 61.7975 59.6325 48.8975 75.0125 47.625C75.0825 51.7025 78.4075 55 82.5 55H97.5V55.43C97.5 58.99 96.2175 62.345 93.8975 65V65ZM82.5 5H147.5C148.877 5 150 6.12 150 7.5V35H80V7.5C80 6.12 81.1225 5 82.5 5ZM5 5H45V39.29L40 44.29V30H10V45H39.29L35.5675 48.7225L36.205 50H5V5ZM35 35V40H15V35H35ZM32.5 71.8025L38.235 69.89L38.5475 68.52C39.5375 64.2075 41.2425 60.1025 43.6125 56.3175L44.3575 55.125L41.65 49.7075L49.7075 41.6475L55.1275 44.3575L56.3175 43.6125C60.1025 41.2425 64.2075 39.5375 68.52 38.5475L69.8875 38.2325L71.8025 32.5H75V42.6275C56.8675 43.9175 42.5 59.045 42.5 77.5C42.5 80.0375 42.79 82.545 43.3275 85H32.5V71.8025ZM7.5 90H72.5C73.8775 90 75 91.12 75 92.5V120H5V92.5C5 91.12 6.1225 90 7.5 90ZM55.0075 150H24.9925C26.62 147.11 27.5 143.84 27.5 140.43V140H52.5V140.43C52.5 143.84 53.38 147.11 55.0075 150ZM72.5 135H7.5C6.1225 135 5 133.88 5 132.5V125H75V132.5C75 133.88 73.8775 135 72.5 135ZM150 150H110V115.712L115 110.71V125H145V110H115.71L119.432 106.278L118.795 105H150V150ZM120 120V115H140V120H120ZM122.5 83.1975L116.765 85.11L116.453 86.48C115.463 90.7925 113.758 94.8975 111.388 98.6825L110.642 99.875L113.35 105.293L105.293 113.352L99.8725 110.642L98.6825 111.388C94.8975 113.758 90.7925 115.463 86.48 116.453L85.1125 116.768L83.1975 122.5H80V112.373C98.1325 111.083 112.5 95.955 112.5 77.5C112.5 74.96 112.21 72.4525 111.675 70H122.5V83.1975ZM99.9925 65C101.62 62.11 102.5 58.84 102.5 55.43V55H127.5V55.43C127.5 58.84 128.38 62.11 130.007 65H99.9925Z" fill="#292E8A"/>
<path d="M115 130H145V135H115V130Z" fill="#292E8A"/>
<path d="M115 140H120V145H115V140Z" fill="#292E8A"/>
<path d="M125 140H145V145H125V140Z" fill="#292E8A"/>
<path d="M10 20H40V25H10V20Z" fill="#292E8A"/>
<path d="M35 10H40V15H35V10Z" fill="#292E8A"/>
<path d="M10 10H30V15H10V10Z" fill="#292E8A"/>
<path d="M102.347 80.2626C102.447 79.3552 102.5 78.4352 102.5 77.5002C102.5 76.5627 102.447 75.6352 102.345 74.7227L97.3774 75.2802C97.4574 76.0052 97.4999 76.7477 97.4999 77.5002C97.4999 78.2502 97.4574 78.9902 97.3774 79.7177L102.347 80.2626Z" fill="#292E8A"/>
<path d="M101.133 85.675L96.4051 84.0425C95.9226 85.4425 95.2801 86.7875 94.4976 88.045L98.7426 90.6875C99.7226 89.11 100.525 87.425 101.133 85.675V85.675Z" fill="#292E8A"/>
<path d="M95.3173 95.0372L91.7524 91.5322C90.7999 92.4997 89.7424 93.3747 88.6099 94.1322L91.3899 98.2872C92.8049 97.3422 94.1248 96.2472 95.3173 95.0372Z" fill="#292E8A"/>
</g>
</svg>
