<svg width="160" height="160" viewBox="0 0 160 160" fill="none" xmlns="http://www.w3.org/2000/svg">
<g opacity="0.1">
<path d="M158.829 90.7891C158.096 90.293 157.164 90.1927 156.341 90.5222C155.458 90.9011 154.607 91.3464 153.792 91.8555C152.492 92.793 150.936 93.3086 149.333 93.3334C141.867 93.3334 138.026 90.4883 133.57 87.1993C128.329 82.6029 121.608 80.0469 114.637 80C107.98 79.9662 101.47 81.9558 95.9701 85.7071C91.2891 88.9727 85.7083 90.7058 80 90.6667C74.7383 90.8685 69.5846 89.142 65.5065 85.8099C60.53 81.8659 54.3203 79.8086 47.974 80C41.0091 80.0443 34.2956 82.6016 29.0664 87.1993C24.6211 90.4883 20.7839 93.3334 13.3333 93.3334C10.043 93.5495 6.76823 92.7357 3.96224 91.0026C3.13672 90.543 2.12891 90.5547 1.3151 91.0339C0.5 91.5131 0 92.3881 0 93.3334V157.333C0 158.806 1.19401 160 2.66667 160H157.333C158.806 160 160 158.806 160 157.333V92.9974C160 92.112 159.561 91.2852 158.829 90.7891ZM154.667 154.667H5.33333V97.53C7.91406 98.3698 10.6211 98.7539 13.3333 98.6667C20.2982 98.6237 27.013 96.0664 32.2422 91.4662C36.6849 88.1706 40.5247 85.3334 47.9766 85.3334C53.237 85.1315 58.3919 86.8581 62.4688 90.1888C67.4453 94.1315 73.6536 96.1901 80 96C86.6615 96.0365 93.1758 94.0456 98.6797 90.293C103.357 87.03 108.931 85.2969 114.634 85.3334C122.102 85.3334 125.944 88.1784 130.397 91.4662C135.639 96.0638 142.361 98.6198 149.333 98.6667C151.182 98.6849 153.009 98.2683 154.667 97.4506V154.667Z" fill="#292E8A"/>
<path d="M42.6665 37.3335H47.9998V42.6668H42.6665V37.3335Z" fill="#292E8A"/>
<path d="M86.8293 0.458299C86.0962 -0.0377946 85.1639 -0.138055 84.341 0.191372L62.6209 8.87757C59.5168 10.1145 57.1912 12.7617 56.3631 16H55.9998C39.7993 16 26.6665 29.1328 26.6665 45.3333C26.6665 61.5338 39.7993 74.6666 55.9998 74.6666H85.3332C95.8605 74.6523 105.396 68.4505 109.677 58.8346L119.351 61.2526L130.018 63.9192C130.815 64.1198 131.66 63.9401 132.307 63.4349C132.954 62.9296 133.333 62.1549 133.333 61.3333V29.3333C133.333 28.5117 132.954 27.7356 132.307 27.2304C131.66 26.7252 130.815 26.5468 130.018 26.7461L119.351 29.4127L109.677 31.832C105.782 23.0963 97.5142 17.1093 87.9998 16.1354V2.66663C87.9998 1.78122 87.561 0.954393 86.8293 0.458299ZM64.6027 13.832L82.6665 6.60543V16H62.0584C62.6444 15.0169 63.5389 14.2539 64.6027 13.832ZM31.9998 45.3333C32.0142 32.0846 42.7511 21.3476 55.9998 21.3333V69.3333C42.7511 69.319 32.0142 58.582 31.9998 45.3333ZM128 57.9166L122.666 56.5833V34.082L128 32.7487V57.9166ZM112 36.7487L117.333 35.4153V55.25L112 53.9166V36.7487ZM106.666 42.6666V48C106.653 59.776 97.1092 69.3203 85.3332 69.3333H61.3332V21.3333H85.3332C97.1092 21.3463 106.653 30.8893 106.666 42.6666Z" fill="#292E8A"/>
<path d="M74.6667 26.6665C73.194 26.6665 72 27.8605 72 29.3332V39.9998C72 41.4725 73.194 42.6665 74.6667 42.6665C76.1393 42.6665 77.3333 41.4725 77.3333 39.9998V29.3332C77.3333 27.8605 76.1393 26.6665 74.6667 26.6665Z" fill="#292E8A"/>
<path d="M85.3335 61.3333C85.3335 62.806 86.5275 64 88.0002 64C89.4728 64 90.6668 62.806 90.6668 61.3333V50.6667C90.6668 49.194 89.4728 48 88.0002 48C86.5275 48 85.3335 49.194 85.3335 50.6667V61.3333Z" fill="#292E8A"/>
<path d="M106.667 114.667C105.811 114.667 105.41 114.323 104.267 112.96C102.878 110.707 100.419 109.336 97.7736 109.336C95.1265 109.336 92.6694 110.707 91.2801 112.96C90.2137 114.25 89.7814 114.667 88.8804 114.667C87.9793 114.667 87.547 114.25 86.4806 112.96C85.0314 110.776 82.6187 109.426 80.0002 109.333C78.5275 109.333 77.3335 110.528 77.3335 112C77.3335 113.473 78.5275 114.667 80.0002 114.667C80.8986 114.667 81.3335 115.082 82.3999 116.374C83.7905 118.625 86.2489 119.996 88.896 119.996C91.5431 119.996 94.0015 118.625 95.3921 116.374C96.4585 115.08 96.8908 114.664 97.7918 114.664C98.6486 114.664 99.0484 115.008 100.192 116.371C101.639 118.554 104.05 119.905 106.667 120C108.14 120 109.334 118.806 109.334 117.333C109.334 115.861 108.14 114.667 106.667 114.667V114.667Z" fill="#292E8A"/>
<path d="M45.3333 114.667C44.4779 114.667 44.0768 114.323 42.9336 112.96C41.4857 110.776 39.0716 109.426 36.4531 109.333C33.8294 109.422 31.4102 110.771 29.957 112.957C28.8906 114.25 28.4583 114.667 27.5573 114.667C26.6563 114.667 26.224 114.25 25.1576 112.957C23.7044 110.774 21.2878 109.423 18.6667 109.333C17.194 109.333 16 110.528 16 112C16 113.473 17.194 114.667 18.6667 114.667C19.5651 114.667 20 115.082 21.0664 116.376C22.5195 118.561 24.9375 119.91 27.5599 120C30.1836 119.912 32.6029 118.561 34.056 116.376C35.1224 115.082 35.5547 114.667 36.4557 114.667C37.3125 114.667 37.7122 115.011 38.8555 116.374C40.3034 118.556 42.7161 119.906 45.3333 120C46.806 120 48 118.806 48 117.333C48 115.861 46.806 114.667 45.3333 114.667V114.667Z" fill="#292E8A"/>
<path d="M141.333 138.667C140.478 138.667 140.077 138.323 138.934 136.96C137.544 134.707 135.087 133.336 132.441 133.336C129.796 133.336 127.339 134.707 125.949 136.96C124.883 138.25 124.451 138.667 123.549 138.667C122.648 138.667 122.216 138.25 121.15 136.957C119.699 134.775 117.285 133.426 114.667 133.333C113.194 133.333 112 134.528 112 136C112 137.473 113.194 138.667 114.667 138.667C115.565 138.667 116 139.082 117.066 140.374C118.457 142.625 120.915 143.996 123.562 143.996C126.21 143.996 128.668 142.625 130.059 140.374C131.125 139.082 131.557 138.667 132.458 138.667C133.318 138.667 133.717 139.011 134.858 140.374C136.305 142.556 138.716 143.906 141.333 144C142.806 144 144 142.806 144 141.333C144 139.861 142.806 138.667 141.333 138.667V138.667Z" fill="#292E8A"/>
<path d="M79.9998 138.667C79.1444 138.667 78.7433 138.323 77.6001 136.96C76.2108 134.706 73.7537 133.333 71.1066 133.333C68.4595 133.333 66.0011 134.706 64.6131 136.96C63.5467 138.253 63.1144 138.669 62.2134 138.669C61.3123 138.669 60.88 138.253 59.8136 136.96C58.3631 134.778 55.9517 133.427 53.3332 133.333C51.8605 133.333 50.6665 134.528 50.6665 136C50.6665 137.473 51.8605 138.667 53.3332 138.667C54.2316 138.667 54.6665 139.082 55.7329 140.376C57.1235 142.628 59.5819 143.999 62.229 143.999C64.8761 143.999 67.3345 142.628 68.7251 140.376C69.7915 139.082 70.2238 138.667 71.1248 138.667C71.9816 138.667 72.3813 139.011 73.5246 140.374C74.9712 142.556 77.3826 143.906 79.9998 144C81.4725 144 82.6665 142.806 82.6665 141.333C82.6665 139.861 81.4725 138.667 79.9998 138.667Z" fill="#292E8A"/>
<path d="M141.333 58.6665C139.861 58.6665 138.667 59.8605 138.667 61.3332C138.667 62.8058 139.861 63.9998 141.333 63.9998C148.694 64.009 154.657 69.9725 154.667 77.3332C154.667 78.8058 155.861 79.9998 157.333 79.9998C158.806 79.9998 160 78.8058 160 77.3332C159.988 67.0285 151.638 58.6782 141.333 58.6665Z" fill="#292E8A"/>
<path d="M138.667 50.6668C138.667 52.1395 139.861 53.3335 141.333 53.3335C148.694 53.3244 154.657 47.3595 154.666 40.0002C154.666 38.5275 153.472 37.3335 152 37.3335C150.527 37.3335 149.333 38.5275 149.333 40.0002C149.333 44.4181 145.751 48.0002 141.333 48.0002C139.861 48.0002 138.667 49.1942 138.667 50.6668Z" fill="#292E8A"/>
<path d="M152 16C147.582 16 144 19.582 144 24C144 28.418 147.582 32 152 32C156.418 32 160 28.418 160 24C160 19.582 156.418 16 152 16ZM152 26.6667C150.527 26.6667 149.333 25.4727 149.333 24C149.333 22.5273 150.527 21.3333 152 21.3333C153.473 21.3333 154.667 22.5273 154.667 24C154.667 25.4727 153.473 26.6667 152 26.6667Z" fill="#292E8A"/>
<path d="M16 26.6665H21.3333V31.9998H16V26.6665Z" fill="#292E8A"/>
<path d="M10.6665 16H15.9998V21.3333H10.6665V16Z" fill="#292E8A"/>
<path d="M16 5.3335H21.3333V10.6668H16V5.3335Z" fill="#292E8A"/>
</g>
</svg>
